<?xml version="1.0" encoding="UTF-8" standalone="no"?><!DOCTYPE svg PUBLIC "-//W3C//DTD SVG 1.1//EN" "http://www.w3.org/Graphics/SVG/1.1/DTD/svg11.dtd"><svg width="100%" height="100%" viewBox="0 0 48 46" version="1.1" xmlns="http://www.w3.org/2000/svg" xmlns:xlink="http://www.w3.org/1999/xlink" xml:space="preserve" xmlns:serif="http://www.serif.com/" style="fill-rule:evenodd;clip-rule:evenodd;stroke-linejoin:round;stroke-miterlimit:2;"><path d="M1.707,34.576c-0.487,0.795 -1.035,1.717 -1.5,2.452c-0.413,0.699 -0.188,1.614 0.503,2.04l9.75,6c0.236,0.147 0.509,0.224 0.788,0.224c0.528,0 1.019,-0.279 1.289,-0.734c0.39,-0.652 0.893,-1.5 1.44,-2.407c3.863,-6.375 7.748,-5.595 14.753,-2.25l9.667,4.597c0.201,0.096 0.422,0.146 0.645,0.146c0.593,-0 1.133,-0.352 1.373,-0.896l4.642,-10.5c0.326,-0.745 -0.01,-1.626 -0.75,-1.965c-2.04,-0.96 -6.097,-2.872 -9.75,-4.635c-13.14,-6.382 -24.307,-5.97 -32.85,7.928Z" style="fill:url(#_Linear1);fill-rule:nonzero;"/><path d="M45.425,10.748c0.487,-0.795 1.035,-1.717 1.5,-2.452c0.413,-0.699 0.188,-1.613 -0.503,-2.04l-9.75,-6c-0.247,-0.167 -0.539,-0.256 -0.838,-0.256c-0.535,-0 -1.032,0.287 -1.299,0.751c-0.39,0.652 -0.893,1.5 -1.44,2.407c-3.863,6.375 -7.748,5.595 -14.753,2.25l-9.637,-4.575c-0.202,-0.095 -0.422,-0.145 -0.645,-0.145c-0.594,-0 -1.134,0.352 -1.373,0.895l-4.642,10.5c-0.326,0.746 0.01,1.627 0.75,1.965c2.04,0.96 6.097,2.873 9.75,4.635c13.17,6.375 24.337,5.948 32.88,-7.935Z" style="fill:url(#_Linear2);fill-rule:nonzero;"/><defs><linearGradient id="_Linear1" x1="0" y1="0" x2="1" y2="0" gradientUnits="userSpaceOnUse" gradientTransform="matrix(-29.4975,-16.95,16.95,-29.4975,44.7946,48.1659)"><stop offset="0" style="stop-color:#0052cc;stop-opacity:1"/><stop offset="0.18" style="stop-color:#0052cc;stop-opacity:1"/><stop offset="1" style="stop-color:#2684ff;stop-opacity:1"/></linearGradient><linearGradient id="_Linear2" x1="0" y1="0" x2="1" y2="0" gradientUnits="userSpaceOnUse" gradientTransform="matrix(1778.62,511.976,-511.976,1778.62,140.72,-8.3782)"><stop offset="0" style="stop-color:#0052cc;stop-opacity:1"/><stop offset="0.18" style="stop-color:#0052cc;stop-opacity:1"/><stop offset="1" style="stop-color:#2684ff;stop-opacity:1"/></linearGradient></defs></svg>