<?xml version="1.0" encoding="UTF-8" standalone="no"?><!DOCTYPE svg PUBLIC "-//W3C//DTD SVG 1.1//EN" "http://www.w3.org/Graphics/SVG/1.1/DTD/svg11.dtd"><svg width="100%" height="100%" viewBox="0 0 150 150" version="1.1" xmlns="http://www.w3.org/2000/svg" xmlns:xlink="http://www.w3.org/1999/xlink" xml:space="preserve" xmlns:serif="http://www.serif.com/" style="fill-rule:evenodd;clip-rule:evenodd;stroke-linejoin:round;stroke-miterlimit:2;"><path d="M83.47,48.317l30.361,0.188c2.587,0.012 4.709,2.144 4.709,4.731c0,1.026 -0.334,2.025 -0.951,2.845l-44.8,59.778c-13.975,-10.456 -16.883,-30.552 -6.444,-44.54l17.125,-23.002Z" style="fill:url(#_Linear1);fill-rule:nonzero;"/><path d="M66.33,71.261l-30.171,-0.189c-2.584,-0.017 -4.699,-2.147 -4.699,-4.731c-0,-1.019 0.33,-2.012 0.94,-2.83l44.351,-59.241c13.975,10.456 16.882,30.553 6.443,44.54l-16.864,22.451Z" style="fill:#2684ff;fill-rule:nonzero;"/><path d="M4.414,127.41l1.222,-0l-0,6.203c-0,1.644 -0.719,2.778 -2.402,2.778c-0.499,0.007 -0.996,-0.071 -1.468,-0.232l0,-1.188c0.403,0.156 0.832,0.235 1.264,0.232c1.032,-0 1.388,-0.625 1.388,-1.508l-0.004,-6.285Z" style="fill:#253858;fill-rule:nonzero;"/><path d="M7.862,126.934c0.019,-0.001 0.037,-0.002 0.056,-0.002c0.417,0 0.761,0.344 0.761,0.761c-0,0.019 -0.001,0.037 -0.002,0.056c-0,0.447 -0.368,0.815 -0.815,0.815c-0.447,-0 -0.815,-0.368 -0.815,-0.815c-0.001,-0.018 -0.002,-0.036 -0.002,-0.054c0,-0.418 0.345,-0.763 0.763,-0.763c0.018,0 0.036,0.001 0.054,0.002Zm-0.597,2.606l1.168,0l-0,6.789l-1.168,-0l-0,-6.789Z" style="fill:#253858;fill-rule:nonzero;"/><path d="M11.338,136.329l-1.14,-0l-0,-6.789l1.14,0l0,1.196c0.394,-0.801 1.072,-1.372 2.404,-1.29l-0,1.14c-1.494,-0.154 -2.404,0.3 -2.404,1.738l0,4.005Z" style="fill:#253858;fill-rule:nonzero;"/><path d="M19.213,135.107c-0.434,0.896 -1.248,1.358 -2.294,1.358c-1.806,-0 -2.716,-1.534 -2.716,-3.53c0,-1.914 0.951,-3.53 2.851,-3.53c0.991,-0 1.751,0.448 2.16,1.331l0,-1.196l1.168,0l0,6.789l-1.168,-0l-0.001,-1.222Zm-1.983,0.271c1.046,0 1.983,-0.665 1.983,-2.172l-0,-0.543c-0,-1.506 -0.855,-2.172 -1.852,-2.172c-1.316,-0 -1.995,0.87 -1.995,2.444c0.005,1.627 0.656,2.443 1.864,2.443Z" style="fill:#253858;fill-rule:nonzero;"/><path d="M27.291,136.465c-1.725,-0 -2.525,-0.34 -3.217,-0.692l0,-1.249c0.827,0.435 2.103,0.746 3.285,0.746c1.344,0 1.851,-0.529 1.851,-1.317c0,-0.789 -0.489,-1.208 -2.186,-1.616c-2.005,-0.489 -2.905,-1.18 -2.905,-2.647c0,-1.389 1.058,-2.416 3.137,-2.416c1.29,-0 2.116,0.308 2.727,0.651l0,1.222c-0.849,-0.468 -1.807,-0.702 -2.777,-0.679c-1.166,0 -1.851,0.407 -1.851,1.222c-0,0.733 0.569,1.1 2.144,1.493c1.887,0.476 2.947,1.08 2.947,2.69c-0.018,1.547 -0.942,2.592 -3.155,2.592Z" style="fill:#253858;fill-rule:nonzero;"/><path d="M35.112,136.465c-2.54,-0 -3.652,-1.466 -3.652,-3.549c-0,-2.05 1.14,-3.518 3.203,-3.518c2.09,0 2.931,1.454 2.931,3.518l0,0.535l-4.954,0c0.164,1.154 0.911,1.901 2.512,1.901c0.704,-0 1.403,-0.125 2.064,-0.367l0,1.08c-0.557,0.292 -1.411,0.4 -2.104,0.4Zm-2.486,-4.012l3.79,0c-0.068,-1.263 -0.639,-1.982 -1.807,-1.982c-1.236,-0.007 -1.859,0.794 -1.983,1.976l0,0.006Z" style="fill:#253858;fill-rule:nonzero;"/><path d="M40.122,136.329l-1.141,-0l0,-6.789l1.141,0l-0,1.196c0.393,-0.801 1.072,-1.372 2.403,-1.29l0,1.14c-1.493,-0.154 -2.403,0.3 -2.403,1.738l-0,4.005Z" style="fill:#253858;fill-rule:nonzero;"/><path d="M45.403,136.329l-2.634,-6.789l1.222,0l2.199,5.794l2.186,-5.798l1.222,-0l-2.634,6.788l-1.561,0.005Z" style="fill:#253858;fill-rule:nonzero;"/><path d="M51.201,126.934c0.018,-0.001 0.036,-0.002 0.054,-0.002c0.418,0 0.761,0.344 0.761,0.761c-0,0.019 -0.001,0.037 -0.002,0.056c0,0.012 0.001,0.024 0.001,0.035c-0,0.447 -0.368,0.815 -0.815,0.815c-0.447,0 -0.815,-0.368 -0.815,-0.815c0,-0.011 0.001,-0.023 0.001,-0.035c-0.001,-0.018 -0.002,-0.036 -0.002,-0.054c0,-0.418 0.344,-0.763 0.762,-0.763c0.018,0 0.037,0.001 0.055,0.002Zm-0.599,2.606l1.168,0l0,6.789l-1.168,-0l0,-6.789Z" style="fill:#253858;fill-rule:nonzero;"/><path d="M58.327,136.153c-0.407,0.217 -1.03,0.309 -1.655,0.309c-2.416,-0 -3.549,-1.466 -3.549,-3.549c0,-2.05 1.128,-3.518 3.549,-3.518c0.556,-0.018 1.109,0.094 1.615,0.327l0,1.08c-0.479,-0.226 -1.004,-0.338 -1.534,-0.327c-1.765,0 -2.485,1.114 -2.485,2.432c-0,1.317 0.734,2.43 2.512,2.43c0.525,0.014 1.048,-0.07 1.543,-0.246l0.004,1.062Z" style="fill:#253858;fill-rule:nonzero;"/><path d="M62.908,136.465c-2.54,-0 -3.652,-1.466 -3.652,-3.549c-0,-2.05 1.14,-3.518 3.204,-3.518c2.091,0 2.932,1.454 2.932,3.518l-0,0.535l-4.953,0c0.164,1.154 0.911,1.901 2.512,1.901c0.704,-0 1.403,-0.125 2.064,-0.367l0,1.08c-0.564,0.292 -1.419,0.4 -2.107,0.4Zm-2.484,-4.012l3.788,0c-0.068,-1.263 -0.639,-1.982 -1.807,-1.982c-1.239,-0.007 -1.864,0.794 -1.986,1.976l0.005,0.006Z" style="fill:#253858;fill-rule:nonzero;"/><path d="M70.696,128.142l0,8.187l-1.222,-0l0,-8.919l2.119,-0l2.022,5.117l0.829,2.458l0.828,-2.458l2.035,-5.117l1.969,-0l0,8.919l-1.222,-0l0,-8.092l-1.044,3.218l-1.969,4.874l-1.179,-0l-1.944,-4.874l-1.222,-3.313Z" style="fill:#253858;fill-rule:nonzero;"/><path d="M85.835,135.107c-0.435,0.896 -1.25,1.358 -2.295,1.358c-1.806,-0 -2.715,-1.534 -2.715,-3.53c0,-1.914 0.95,-3.53 2.851,-3.53c0.991,-0 1.751,0.448 2.16,1.331l0,-1.196l1.168,0l0,6.789l-1.169,-0l-0,-1.222Zm-1.983,0.271c1.046,0 1.983,-0.665 1.983,-2.172l-0,-0.543c-0,-1.506 -0.855,-2.172 -1.852,-2.172c-1.316,-0 -1.995,0.87 -1.995,2.444c0.005,1.627 0.656,2.443 1.864,2.443Z" style="fill:#253858;fill-rule:nonzero;"/><path d="M94.536,136.329l-1.168,-0l0,-4.1c0,-1.221 -0.489,-1.765 -1.601,-1.765c-1.08,0 -1.833,0.719 -1.833,2.091l0,3.774l-1.168,-0l0,-6.789l1.168,0l0,1.114c0.423,-0.785 1.253,-1.268 2.145,-1.249c1.561,-0 2.457,1.08 2.457,2.946l0,3.978Z" style="fill:#253858;fill-rule:nonzero;"/><path d="M100.769,135.107c-0.435,0.896 -1.249,1.358 -2.294,1.358c-1.806,-0 -2.715,-1.534 -2.715,-3.53c-0,-1.914 0.95,-3.53 2.851,-3.53c0.991,-0 1.751,0.448 2.16,1.331l0,-1.196l1.171,0l0,6.789l-1.173,-0l0,-1.222Zm-1.982,0.271c1.046,0 1.982,-0.665 1.982,-2.172l0,-0.543c0,-1.506 -0.856,-2.172 -1.851,-2.172c-1.316,-0 -1.995,0.87 -1.995,2.444c0.005,1.627 0.656,2.443 1.864,2.443Z" style="fill:#253858;fill-rule:nonzero;"/><path d="M108.277,135.107c-0.434,0.896 -1.248,1.358 -2.294,1.358c-1.791,-0 -2.688,-1.534 -2.688,-3.53c0,-1.914 0.937,-3.53 2.824,-3.53c0.992,-0 1.751,0.448 2.16,1.331l-0,-1.196l1.14,0l-0,6.172c-0,1.996 -0.937,3.34 -3.367,3.34c-0.819,0.026 -1.637,-0.097 -2.413,-0.361l0,-1.14c0.759,0.261 1.555,0.398 2.358,0.406c1.697,-0 2.28,-0.909 2.28,-2.173l-0,-0.677Zm-1.981,0.271c1.044,0 1.981,-0.665 1.981,-2.172l-0,-0.543c-0,-1.506 -0.855,-2.172 -1.851,-2.172c-1.318,-0 -1.997,0.87 -1.997,2.444c0.006,1.627 0.657,2.443 1.867,2.443Z" style="fill:#253858;fill-rule:nonzero;"/><path d="M114.428,136.465c-2.539,-0 -3.652,-1.466 -3.652,-3.549c0,-2.05 1.141,-3.518 3.203,-3.518c2.091,0 2.932,1.454 2.932,3.518l-0,0.535l-4.954,0c0.163,1.154 0.91,1.901 2.511,1.901c0.705,-0 1.403,-0.125 2.065,-0.367l-0,1.08c-0.551,0.292 -1.413,0.4 -2.105,0.4Zm-2.485,-4.012l3.788,0c-0.068,-1.263 -0.638,-1.982 -1.806,-1.982c-1.235,-0.007 -1.86,0.794 -1.982,1.976l-0,0.006Z" style="fill:#253858;fill-rule:nonzero;"/><path d="M124.068,136.329l-1.168,-0l0,-4.1c0,-1.221 -0.489,-1.765 -1.603,-1.765c-1.08,0 -1.833,0.719 -1.833,2.091l0,3.774l-1.168,-0l0,-6.789l1.167,0l-0,1.114c0.423,-0.785 1.254,-1.268 2.146,-1.249c1.154,-0 1.941,0.584 2.28,1.657c0.38,-1.047 1.29,-1.657 2.418,-1.657c1.519,-0 2.362,1.032 2.362,2.946l-0,3.978l-1.168,-0l-0,-3.772c-0,-1.398 -0.489,-2.091 -1.603,-2.091c-1.08,0 -1.831,0.719 -1.831,2.091l0.001,3.772Z" style="fill:#253858;fill-rule:nonzero;"/><path d="M133.544,136.465c-2.539,-0 -3.652,-1.466 -3.652,-3.549c0,-2.05 1.141,-3.518 3.205,-3.518c2.09,0 2.931,1.454 2.931,3.518l0,0.535l-4.955,0c0.163,1.154 0.91,1.901 2.511,1.901c0.705,-0 1.403,-0.125 2.065,-0.367l-0,1.08c-0.557,0.292 -1.412,0.4 -2.105,0.4Zm-2.485,-4.012l3.789,0c-0.068,-1.263 -0.639,-1.982 -1.807,-1.982c-1.236,-0.007 -1.859,0.794 -1.982,1.976l-0,0.006Z" style="fill:#253858;fill-rule:nonzero;"/><path d="M143.184,136.329l-1.168,-0l0,-4.1c0,-1.221 -0.489,-1.765 -1.603,-1.765c-1.08,0 -1.831,0.719 -1.831,2.091l-0,3.774l-1.168,-0l-0,-6.789l1.168,0l-0,1.114c0.423,-0.785 1.253,-1.268 2.144,-1.249c1.562,-0 2.458,1.08 2.458,2.946l-0,3.978Z" style="fill:#253858;fill-rule:nonzero;"/><path d="M147.501,135.23c0.247,-0.007 0.492,-0.039 0.733,-0.095l-0,1.124c-0.256,0.075 -0.521,0.112 -0.787,0.11c-1.453,-0 -2.16,-0.856 -2.16,-2.118l-0,-3.625l-1.1,0l-0,-1.08l1.109,0l0,-1.444l1.14,0l0,1.438l1.792,0l-0,1.08l-1.806,0l0,3.604c0.007,0.599 0.36,1.006 1.079,1.006Z" style="fill:#253858;fill-rule:nonzero;"/><defs><linearGradient id="_Linear1" x1="0" y1="0" x2="1" y2="0" gradientUnits="userSpaceOnUse" gradientTransform="matrix(12.7535,38.5663,-38.5663,12.7535,82.282,52.7834)"><stop offset="0" style="stop-color:#0052cc;stop-opacity:1"/><stop offset="1" style="stop-color:#2684ff;stop-opacity:1"/></linearGradient></defs></svg>